<svg width="796" height="200" viewBox="0 0 796 200" fill="none" xmlns="http://www.w3.org/2000/svg">
<path d="M365.184 160V40H383.289V144.414H437.664V160H365.184ZM458.318 160V40H533.553V55.5859H476.424V92.1484H529.627V107.676H476.424V144.414H534.256V160H458.318ZM551.819 55.5859V40H644.69V55.5859H607.249V160H589.202V55.5859H551.819Z" fill="#E9BF51"/>
<path fill-rule="evenodd" clip-rule="evenodd" d="M331.38 68.208H310.918L305.231 54.017C299.395 39.429 285.439 30 269.706 30H226.308C210.561 30 196.619 39.429 190.769 54.017L185.082 68.208H164.62C161.955 68.208 160 70.719 160.642 73.298L162.693 81.486C163.158 83.301 164.798 84.583 166.67 84.583H173.532C168.939 88.582 165.987 94.408 165.987 100.958V117.333C165.987 122.833 168.092 127.8 171.454 131.634V150.083C171.454 156.115 176.348 161 182.39 161H193.325C199.366 161 204.26 156.115 204.26 150.083V139.167H291.74V150.083C291.74 156.115 296.634 161 302.675 161H313.61C319.652 161 324.546 156.115 324.546 150.083V131.634C327.908 127.8 330.013 122.833 330.013 117.333V100.958C330.013 94.408 327.061 88.582 322.468 84.583H329.33C331.216 84.583 332.856 83.301 333.307 81.486L335.358 73.298C336 70.719 334.045 68.208 331.38 68.208ZM211.067 62.122C213.568 55.913 219.596 51.833 226.308 51.833H269.706C276.404 51.833 282.445 55.913 284.933 62.122L291.74 79.125H204.26L211.067 62.122ZM193.325 117.265C186.764 117.265 182.39 112.912 182.39 106.389C182.39 99.853 186.764 95.5 193.325 95.5C199.886 95.5 209.727 105.298 209.727 111.82C209.727 118.357 199.886 117.265 193.325 117.265ZM302.675 117.265C296.114 117.265 286.273 118.357 286.273 111.82C286.273 105.298 296.114 95.5 302.675 95.5C309.236 95.5 313.61 99.853 313.61 106.376C313.61 112.912 309.236 117.265 302.675 117.265Z" fill="#E9BF51"/>
<path fill-rule="evenodd" clip-rule="evenodd" d="M102.357 59.0193C101.91 59.366 101.394 59.59 100.812 59.7279C101.548 62.069 101.882 64.8266 101.576 68.0452C100.995 74.0692 101.726 80.1736 103.027 83.6081C104.744 88.1519 114.203 86.7481 114.193 80.4161C113.966 75.1881 113.38 70.9493 112.6 69.4135C108.315 64.7213 102.951 59.6996 102.886 59.6136C102.699 59.4291 102.528 59.2242 102.357 59.0193ZM148.237 26.9441C149.236 27.1089 150.152 27.5621 150.875 28.3955C152.325 30.1 141.693 90.3999 132.175 104.067C121.749 118.988 92.2334 155.046 92.2334 155.046L67.0914 134.783C69.4858 132.976 76.8838 122.279 76.6547 116.51C76.3804 109.63 77.3804 103.169 79.1706 96.4359C80.7954 90.2423 82.2943 80.281 82.6786 77.9666C84.9636 64.2317 84.4934 61.9359 85.8299 55.1404C86.009 54.2081 86.3715 53.4235 86.8441 52.7946L86.8257 52.7712L86.8903 52.6597C87.6953 51.7897 88.6743 51.1513 89.8016 50.8188L90.5258 50.8119L90.6085 50.9126C93.2751 50.7706 96.4999 52.3563 98.7826 55.5719C99.2034 55.675 99.559 55.6921 99.7799 55.6681L99.7534 55.5999L100.68 55.6L100.68 44.595L101.699 42.9927C102.645 41.9536 103.714 41.5949 104.615 42.2695C104.982 42.5648 118.916 53.5067 124.183 59.3587C125.539 60.8871 127.06 63.2545 128.135 68.0548C128.591 66.4032 129.038 64.8456 129.579 63.2964C132.567 54.3647 136.008 36.3126 139.936 30.7622C141.487 28.5533 145.238 26.4503 148.237 26.9441Z" fill="#E9BF51"/>
<path fill-rule="evenodd" clip-rule="evenodd" d="M93.3125 53.1825C92.5159 53.4753 92.4539 55.2869 93.1618 57.2133C93.8697 59.1396 95.09 60.4802 95.8867 60.1874C96.178 60.0803 96.3642 59.7469 96.4616 59.2915C95.0629 58.9662 93.9866 58.2574 93.5504 57.0705C93.1071 55.8641 93.4684 54.627 94.3307 53.493C93.9545 53.1895 93.6039 53.0755 93.3125 53.1825ZM62.0499 66.1064C62.1605 65.867 62.3702 65.6575 62.6226 65.5647L80.0504 59.1604C79.9618 58.199 79.9999 57.1028 80.1385 55.8594C80.1999 55.3067 80.4793 54.8065 80.9078 54.4723C84.8207 51.378 88.7842 49.9214 93.7697 49.7458C94.3126 49.7231 94.8493 49.9234 95.2541 50.3047C95.2541 50.3047 95.7457 50.7424 96.3855 51.5233L97.8186 50.7641L98.6096 53.9372L98.1186 54.1991C98.2862 54.5351 98.4343 54.8782 98.563 55.2285C98.6917 55.5787 98.8011 55.9361 98.8837 56.2812L99.1827 56.2367L99.9659 59.3787L99.3028 59.462C99.3137 60.4519 99.2297 61.1233 99.2297 61.1233C99.1681 61.6759 98.8888 62.1761 98.4603 62.5103C94.5474 65.6046 90.5839 67.0611 85.5984 67.2368C85.0556 67.2596 84.5187 67.0592 84.1141 66.6779C83.2033 65.82 82.4644 65.0094 81.9023 64.1999L77.7057 65.7421C77.4531 65.8349 77.1649 65.8304 76.9256 65.7196L75.7029 65.1529L75.1576 66.3693C75.0276 66.6158 74.8302 66.7988 74.5582 66.8987L74.325 66.9844C74.0725 67.0772 73.7841 67.0728 73.5449 66.9619L72.3223 66.3952L71.777 67.6116C71.647 67.8581 71.4302 68.0482 71.1776 68.141L70.9639 68.2196C70.7113 68.3124 70.423 68.3079 70.1838 68.1971L68.9612 67.6304L68.3963 68.8539C68.2858 69.0933 68.069 69.2834 67.8164 69.3762L64.4746 70.6042C64.2221 70.697 63.9337 70.6925 63.6945 70.5817L61.5682 69.5963C61.3096 69.4925 61.1195 69.2753 61.0265 69.0223C60.9336 68.7694 60.9378 68.4807 61.0677 68.2342L62.0499 66.1064Z" fill="white"/>
<path fill-rule="evenodd" clip-rule="evenodd" d="M93.5799 56.329C92.6589 53.322 95.3059 49.845 99.4929 48.562C103.68 47.279 107.821 48.676 108.743 51.682C109.664 54.688 107.016 58.165 102.829 59.449C98.6419 60.732 94.5009 59.335 93.5799 56.329ZM98.0779 54.95C98.2379 55.472 99.7479 55.472 101.451 54.95C103.154 54.428 104.404 53.582 104.244 53.06C104.084 52.539 102.574 52.538 100.872 53.06C99.1689 53.582 97.9179 54.428 98.0779 54.95Z" fill="white"/>
<path fill-rule="evenodd" clip-rule="evenodd" d="M79.805 156.624C81.76 153.219 80.451 149.053 77.196 146.887L53.1 130.718C50.131 128.741 48.051 125.849 47.157 122.512L39.91 95.4692C39.371 93.4572 40.727 91.3302 42.924 90.7422C45.12 90.1532 47.358 91.3172 47.897 93.3292L52.693 111.23C53.666 114.859 57.288 117.514 61.37 117.057C66.565 116.479 69.965 111.795 68.769 107.334L58.971 70.7642C57.317 64.5932 53.394 59.2552 47.865 55.5922L35.612 47.4802L32.219 34.8172C31.68 32.8062 29.442 31.6422 27.246 32.2302L3.286 38.6502C1.09 39.2392 -0.266002 41.3662 0.272998 43.3772L22.124 124.928C23.013 128.246 25.093 131.138 28.068 133.134L67.527 159.6C71.473 162.267 77.336 160.989 79.805 156.624Z" fill="#E9BF51"/>
<path fill-rule="evenodd" clip-rule="evenodd" d="M718.325 115.001L697.694 94.6572C695.348 92.3435 691.379 92.4681 688.879 94.9335L673.815 109.787C671.307 112.259 671.188 116.166 673.535 118.479L679.579 124.44L649 154.592L649.047 158.222L681.443 126.278L683.314 128.123L649.1 161.859L649.11 162.899L657.543 163L688.114 132.856L694.166 138.823C696.505 141.129 700.474 141.005 702.974 138.539L718.038 123.686C720.538 121.221 720.665 117.307 718.325 115.001ZM703.559 121.842L690.749 109.211C688.41 106.905 687.961 103.558 689.764 101.782C691.558 100.012 694.952 100.454 697.292 102.76L710.101 115.39C712.439 117.697 712.888 121.044 711.093 122.813C709.291 124.591 705.897 124.148 703.559 121.842Z" fill="white"/>
<path fill-rule="evenodd" clip-rule="evenodd" d="M790 165L667.413 29H648L770.587 165H790Z" fill="#E9BF51"/>
<path fill-rule="evenodd" clip-rule="evenodd" d="M760.173 28H796L735.854 96L718 75.6786L760.173 28Z" fill="white"/>
</svg>
