<svg xmlns="http://www.w3.org/2000/svg" version="1.1" xmlns:xlink="http://www.w3.org/1999/xlink" xmlns:svgjs="http://svgjs.dev/svgjs" viewBox="0 0 2.557512746596238 2.6932163343307107"><g transform="matrix(1,0,0,1,0.21869268380359408,0.21869268380359408)"><g><path d=" M 0.5626479899019048 0.35549876563130156 Q 0.56454803335715 0.3542026811941679 0.5670624803820141 0.35460586373242087 Q 0.5695769274068782 0.3550090462706738 0.5710984178330786 0.3572395320659616 Q 0.5716055813084787 0.3579830273310575 0.5719343940699855 0.3589087066318255 Q 0.5722632068314923 0.3598343859325934 0.5722747067968285 0.36091599018128945 L 0.57183634061108 0.40055622018929005 L 0.5694350778298709 0.39384176287275435 L 0.5856079575454083 0.4175510007708135 Q 0.5870730964743419 0.41969887598109057 0.5866135624388223 0.422130712420944 Q 0.5861540284033027 0.4245625488607975 0.5842539849480576 0.4258586332979311 Q 0.582188720322791 0.4272674207295981 0.5797568838829377 0.4268078866940785 Q 0.5773250474430842 0.42634835265855886 0.5758599085141505 0.42420047744828177 L 0.5601378407767467 0.4011521242303079 L 0.5626019733693657 0.40334485097251555 L 0.528585207291526 0.3918075364840594 Q 0.5270265319769526 0.39129711385158766 0.5260198716697099 0.39053119282052645 Q 0.525013211362467 0.3897652717894653 0.5244496963898002 0.3889391659393587 Q 0.5229282059635999 0.3867086801440709 0.5237050527952901 0.3841209187562894 Q 0.5244818996269804 0.3815331573685079 0.5262993324972149 0.38029342442864095 Q 0.5286124288775134 0.3787155825051739 0.5319250930862043 0.3798452974428721 L 0.562719472183921 0.39091761499549404 L 0.5601809698145559 0.39216501457891845 L 0.5602080055693723 0.36079465804495536 Q 0.5602522829365957 0.3571329590520353 0.5626479899019048 0.35549876563130156 M 0.6444133158774564 0.35768944747658993 Q 0.648529946076798 0.3647812283391003 0.6485109141984715 0.3720189515852329 Q 0.648491882320145 0.37925667483136544 0.6449301449290786 0.385371127117309 Q 0.6413684075380124 0.39148557940325257 0.6347955374703199 0.3953009927587399 Q 0.6282226674026273 0.3991164061142273 0.621146733499928 0.3991768991272961 Q 0.6140707995972287 0.39923739214036497 0.6077764168052716 0.39566447382779263 Q 0.6014820340133145 0.3920915555152203 0.5973654038139729 0.3849997746527099 Q 0.5932487736146312 0.3779079937901995 0.5932678054929579 0.370670270544067 Q 0.5932868373712844 0.36343254729793445 0.5968234733586961 0.357274852445756 Q 0.6003601093461078 0.35111715759357764 0.6069329794138004 0.3473017442380903 Q 0.613505849481493 0.34348633088260294 0.6206068847878469 0.34346908043576896 Q 0.6277079200942007 0.34345182998893486 0.6340023028861578 0.3470247483015072 Q 0.6402966856781148 0.35059766661407954 0.6444133158774564 0.35768944747658993 M 0.6340350999810997 0.36371378435367524 Q 0.6314747568083385 0.35930304259772367 0.6278192063186218 0.3570890076799476 Q 0.624163655828905 0.3548749727621715 0.6201256598052126 0.35479078183247115 Q 0.6160876637815201 0.35470659090277074 0.6124552882177953 0.3568151088097506 Q 0.6088229126540704 0.35892362671673045 0.6068934345373578 0.3624718113507549 Q 0.6049639564206452 0.3660199959847793 0.6050736164791067 0.37029234600222616 Q 0.6051832765375683 0.374564696019673 0.6077436197103295 0.37897543777562465 Q 0.6102537600757818 0.38329969439910655 0.6139093105654985 0.38551372931688266 Q 0.6175648610552152 0.3877277642346587 0.6216028570789077 0.38781195516435907 Q 0.6256408531026002 0.3878961460940595 0.6292732286663251 0.3857876281870796 Q 0.6329056042300498 0.38367911028009977 0.6348350823467624 0.38013092564607537 Q 0.6367645604634751 0.3765827410120509 0.6366549004050135 0.37231039099460406 Q 0.636545240346552 0.3680380409771572 0.6340350999810997 0.36371378435367524 M 0.681955538042206 0.30925850875851024 Q 0.6842951554299248 0.3081244053773832 0.6865882440745764 0.30895761871607247 Q 0.6888813327192281 0.3097908320547617 0.6900154361003551 0.31213044944248053 L 0.7010947537467498 0.33498671161481064 Q 0.7057184059928829 0.344525151733972 0.7031136745988239 0.35267778163878205 Q 0.7005089432047649 0.3608304115435921 0.6905205766648883 0.3656721605937882 Q 0.6805322101250117 0.3705139096439843 0.6725636706322646 0.3674865546346521 Q 0.6645951311395174 0.36445919962531986 0.6599714788933843 0.35492075950615853 L 0.6488921612469896 0.3320644973338284 Q 0.6477580578658625 0.32972487994610955 0.6485244688820739 0.3274086083397927 Q 0.6492908798982854 0.3250923367334758 0.6516304972860042 0.3239582333523488 Q 0.653970114673723 0.3228241299712218 0.6562632033183747 0.323657343309911 Q 0.6585562919630263 0.32449055664860027 0.6596903953441534 0.3268301740363191 L 0.670769712990548 0.3496864362086492 Q 0.6734304940001152 0.3551755385413742 0.6771468678159481 0.35665238168165403 Q 0.680863241631781 0.3581292248219339 0.6857224469755048 0.35577377933805465 Q 0.6906716376033715 0.35337471449336294 0.6918144691312623 0.34954242586920387 Q 0.6929573006591532 0.34571013724504485 0.6902965196495859 0.3402210349123199 L 0.6792172020031912 0.3173647727399898 Q 0.6780830986220643 0.315025155352271 0.6788495096382757 0.3127088837459541 Q 0.6796159206544872 0.3103926121396372 0.681955538042206 0.30925850875851024 M 0.7311491777505923 0.34614051920897326 Q 0.7287418502415992 0.3471227484411004 0.7265067125794797 0.3461446586541305 Q 0.7242715749173602 0.3451665688671606 0.7232893456852331 0.3427592413581675 L 0.7076870121133673 0.3045197697730078 Q 0.7067047828812402 0.30211244226401474 0.707617688884727 0.29984989886580166 Q 0.7085305948882138 0.2975873554675885 0.7109379223972069 0.2966051262354614 Q 0.7133452499062 0.2956228970033343 0.7155803875683195 0.29660098679030417 Q 0.717815525230439 0.2975790765772741 0.7187977544625662 0.2999864040862672 L 0.7223488909171797 0.308689818926473 L 0.7191696351050463 0.3027507674465635 Q 0.7192814466830414 0.3001130604554392 0.720202869398927 0.2977390385139546 Q 0.7211242921148127 0.2953650165724701 0.7226890359531303 0.29337653053519275 Q 0.724253779791448 0.29138804449791544 0.7263418494965274 0.28988805619571784 Q 0.7284299192016068 0.2883880678935203 0.7307446571910232 0.2874436167087826 Q 0.733522342778323 0.28631027528709746 0.736062654735266 0.2871098471484158 Q 0.7386029666922092 0.2879094190097341 0.7394718617821677 0.2900389779599972 Q 0.7407185373460214 0.2930944321060269 0.7396922972003661 0.29507920694551004 Q 0.7386660570547108 0.2970639817849932 0.7368142666631776 0.2978195427327833 Q 0.735055065791221 0.2985373256331839 0.7333554819060564 0.29847475873068463 Q 0.7316558980208916 0.29841219182818535 0.7298041076293584 0.29916775277597546 Q 0.7281374962769787 0.2998477576289866 0.7267457035676212 0.30133366242209403 Q 0.7253539108582638 0.3028195672152015 0.7245987781578368 0.30507173830211864 Q 0.7238436454574096 0.3073239093890358 0.7239651632772534 0.31013642310801753 Q 0.724086681097097 0.31294893682699926 0.7254466908031192 0.316282159531759 L 0.7344000880344319 0.3382258756714268 Q 0.7353823172665591 0.34063320318041995 0.7344694112630723 0.34289574657863303 Q 0.7335565052595854 0.3451582899768461 0.7311491777505923 0.34614051920897326 M 0.8276616406245748 0.24287518232782312 Q 0.8305218926824269 0.2433937940954807 0.8317391360686756 0.24595520357829168 Q 0.8329563794549242 0.24851661306110262 0.83177770952007 0.25125718548026454 Q 0.8310347250111771 0.2533495463524721 0.8291230970332718 0.2541164742982987 Q 0.8272114690553666 0.2548834022441253 0.8249152887665056 0.2545125167078124 Q 0.8223031026903734 0.25412978455125707 0.8195911835819994 0.2542971008673657 Q 0.8168792644736255 0.25446441718347423 0.814095658925664 0.25527776837045224 Q 0.8089123934225636 0.25679228437379065 0.8053097635739521 0.25961603333109784 Q 0.8017071337253406 0.2624397822884051 0.7997110094477877 0.2663047516115128 Q 0.7977148851702348 0.27016972093462055 0.7974330994821883 0.2747318582436033 Q 0.7971513137941418 0.279293995552586 0.7986097366121714 0.2842852882592754 Q 0.8003205787640907 0.2901404585498149 0.8032624374021368 0.2939690310976131 Q 0.8062042960401827 0.2977976036454113 0.8100212721641877 0.2998077512192914 Q 0.8138382482881926 0.3018178987931715 0.8182763526063154 0.3020317446756668 Q 0.8227144569244381 0.3022455905581621 0.8274177904365109 0.3008713075180958 Q 0.8300094231880611 0.3001140495164266 0.8324608229763393 0.2988768595237296 Q 0.8349122227646175 0.2976396695310326 0.8369472770152493 0.2956906815379999 Q 0.838682525451022 0.29414183911020153 0.8407343863921993 0.2938548431554027 Q 0.8427862473333767 0.29356784720060397 0.844634895576034 0.2949029500711423 Q 0.8472557883565057 0.2967416781731932 0.847471097871717 0.2994395739852399 Q 0.8476864073869285 0.3021374697972867 0.8456233065436423 0.3039904713921138 Q 0.843492265894805 0.305967505977801 0.8410910359817144 0.3075546716605447 Q 0.8386898060686239 0.3091418373432884 0.836128396585813 0.310359080729537 Q 0.8335669871030019 0.3115763241157856 0.8307833815550406 0.3123896753027636 Q 0.8238723608842399 0.3144090299738815 0.8170361665689294 0.3140103480413632 Q 0.8101999722536188 0.3136116661088449 0.8040905624747892 0.3107086311186424 Q 0.7979811526959595 0.3078055961284399 0.7933044021438251 0.3021398654365422 Q 0.7886276515916908 0.29647413474464457 0.7861315048454479 0.2879313453043493 Q 0.7839719172110581 0.28054039264252073 0.7846925282409686 0.273558042053817 Q 0.7854131392708792 0.2665756914651133 0.7887362664327644 0.2606560778066098 Q 0.7920593935946496 0.25473646414810636 0.7976512611708749 0.25034174948046756 Q 0.8032431287471002 0.24594703481282876 0.8107300678071344 0.24375940058578444 Q 0.8149534693281792 0.2425253505089902 0.8192653639793571 0.24230725759956045 Q 0.823577258630535 0.2420891646901307 0.8276616406245748 0.24287518232782312 M 0.9065954557723079 0.26625378601089444 Q 0.9082834968250508 0.27427815622943835 0.9059982901521187 0.2811456761938787 Q 0.9037130834791868 0.2880131961583191 0.898415311142669 0.29270426301676694 Q 0.8931175388061513 0.2973953298752148 0.8856803176279886 0.29895985572897643 Q 0.878243096449826 0.3005243815827381 0.8715043134585277 0.29836537630340454 Q 0.8647655304672296 0.296206371024071 0.8599070904821896 0.2908416193139017 Q 0.8550486504971495 0.28547686760373236 0.8533606094444067 0.27745249738518846 Q 0.8516725683916638 0.26942812716664455 0.8539577750645959 0.26256060720220414 Q 0.8562429817375279 0.2556930872377638 0.8615304611407971 0.2509530912926175 Q 0.8668179405440665 0.24621309534747124 0.8742551617222292 0.24464856949370956 Q 0.8816923829003918 0.2430840436399479 0.8884414588249384 0.2452919780059799 Q 0.8951905347494851 0.2474999123720119 0.900048974734525 0.2528646640821812 Q 0.904907414719565 0.2582294157923505 0.9065954557723079 0.26625378601089444 M 0.8948524749646827 0.2687240899905181 Q 0.8938025957733426 0.2637333231472774 0.8910245332250742 0.26048565190808015 Q 0.8882464706768058 0.257237980668883 0.8844380604981794 0.2558931714216904 Q 0.880629650319553 0.2545483621744978 0.8765196070368841 0.25541296856736606 Q 0.8724095637542153 0.25627757496023434 0.8694657599684572 0.2590428089957106 Q 0.8665219561826991 0.2618080430311868 0.8652878336216955 0.26589973479675544 Q 0.864053711060692 0.26999142656232406 0.865103590252032 0.2749821934055648 Q 0.8661328835768751 0.2798751020754086 0.8689109461251435 0.28312277331460584 Q 0.8716890086734119 0.286370444553803 0.8754974188520384 0.2877152538009956 Q 0.8793058290306648 0.2890600630481882 0.8834158723133336 0.2881954566553199 Q 0.8875259155960025 0.28733085026245164 0.8904697193817606 0.2845656162269754 Q 0.8934135231675187 0.28180038219149917 0.8946476457285223 0.2777086904259306 Q 0.8958817682895258 0.273616998660362 0.8948524749646827 0.2687240899905181 M 0.9468497733982914 0.2323708971129979 Q 0.9547987410253755 0.23146872547546543 0.959008670748803 0.23486563461817175 Q 0.9632186004722305 0.23826254376087808 0.9650988514899116 0.2441883058308999 L 0.9633082015599338 0.24348575844582857 L 0.9639226639951357 0.2418057477566585 Q 0.9648556347934077 0.2393850938182419 0.9670408428219389 0.23647006965504141 Q 0.9692260508504701 0.23355504549184086 0.9725447780438093 0.23131650806392262 Q 0.9758635052371485 0.22907797063600438 0.9802354374320448 0.22858177623536152 Q 0.9873895082964206 0.2277698217615823 0.9914651783811601 0.23042715376198408 Q 0.9955408484658996 0.23308448576238583 0.9975126907923009 0.23804375363575309 Q 0.9994845331187021 0.24300302150912034 1.000194993283259 0.24926283351544912 L 1.0030819425233628 0.27469952992211844 Q 1.0033751483055608 0.27728294440092077 1.0018833427305158 0.2792134925423211 Q 1.0003915371554706 0.2811440406837214 0.9978081226766682 0.28143724646591944 Q 0.9952247081978659 0.2817304522481175 0.9933382025314003 0.2801833270526685 Q 0.9914516968649347 0.2786362018572195 0.9911584910827366 0.27605278737841715 L 0.9882715418426327 0.2506160909717478 Q 0.9878993960421506 0.2473371418255756 0.9868056549245096 0.2447942634628572 Q 0.9857119138068685 0.24225138510013883 0.9834448754772525 0.2408984116295743 Q 0.9811778371476363 0.23954543815900972 0.9773027154294328 0.2399852468323068 Q 0.9735269558065678 0.24041377836013472 0.9710246135599334 0.24230805481321877 Q 0.968522271313299 0.2442023312663028 0.9674797273811612 0.24698766825660803 Q 0.9664371834490233 0.24977300524691326 0.9668093292495055 0.2530519543930855 L 0.9696962784896094 0.2784886507997548 Q 0.9699894842718074 0.28107206527855716 0.9684976786967623 0.28300261341995747 Q 0.9670058731217172 0.2849331615613578 0.9644224586429148 0.28522636734355583 Q 0.9618390441641124 0.2855195731257539 0.9599525384976468 0.28397244793030485 Q 0.9580660328311812 0.2824253227348559 0.9577728270489831 0.2798419082560535 L 0.9548858778088792 0.2544052118493842 Q 0.9545137320083971 0.251126262703212 0.953419990890756 0.2485833843404936 Q 0.952326249773115 0.24604050597777521 0.9500592114434989 0.24468753250721065 Q 0.9477921731138829 0.24333455903664608 0.9439170513956793 0.24377436770994315 Q 0.9401412917728144 0.24420289923777108 0.9376389495261799 0.24609717569085512 Q 0.9351366072795455 0.24799145214393917 0.9340940633474076 0.2507767891342444 Q 0.9330515194152699 0.25356212612454965 0.933423665215752 0.25684107527072186 L 0.936310614455856 0.28227777167739115 Q 0.936603820238054 0.2848611861561935 0.9351120146630088 0.2867917342975938 Q 0.9336202090879636 0.2887222824389941 0.9310367946091613 0.28901548822119216 Q 0.9284533801303589 0.28930869400339027 0.9265668744638933 0.28776156880794124 Q 0.9246803687974278 0.2862144436124922 0.9243871630152297 0.28363102913368987 L 0.9197297019364683 0.24259448375886788 Q 0.9194364961542703 0.24001106928006555 0.9209283017293154 0.23808052113866524 Q 0.9224201073043605 0.23614997299726492 0.9250035217831629 0.23585676721506685 Q 0.9275869362619653 0.2355635614328688 0.9294734419284308 0.23711068662831783 Q 0.9313599475948965 0.23865781182376683 0.9316531533770945 0.24124122630256917 L 0.9321380706322683 0.24551379640212692 L 0.9306138077657825 0.2453848672981486 Q 0.9313163551508538 0.24359421736817083 0.9326862443396221 0.24147622218156256 Q 0.9340561335283903 0.2393582269949543 0.9361497502482015 0.23740969702840833 Q 0.9382433669680125 0.23546116706186235 0.9409070956100658 0.2341021049876712 Q 0.9435708242521191 0.23274304291348002 0.9468497733982914 0.2323708971129979 M 1.0467293012482306 0.225409665632103 Q 1.0537281478339644 0.22528259687370583 1.059341675354412 0.2287312645551703 Q 1.0649552028748597 0.23217993223663475 1.0683172139756736 0.23831991443188613 Q 1.0716792250764875 0.2444598966271375 1.07182807705061 0.2526585454847115 Q 1.0719769290247323 0.26085719434228555 1.0688409187870676 0.2671651607173752 Q 1.0657049085494028 0.2734731270924649 1.0603202485779828 0.2771214742514106 Q 1.0549355886065628 0.28076982141035634 1.0481367090661355 0.28089325963279926 Q 1.044137368160002 0.28096587035188336 1.0406143463834328 0.2797296189365885 Q 1.0370913246068634 0.2784933675212936 1.0344054558970077 0.27654180166962 Q 1.031719587187152 0.2745902358179464 1.030232613115148 0.2725668949892208 Q 1.028745639043144 0.2705435541604953 1.0287202252914647 0.26914378484334855 L 1.031796116010016 0.26778772574156495 L 1.0322735314879938 0.29408339219939383 Q 1.0323207284553984 0.2966829637883807 1.030652775759891 0.29846353499042494 Q 1.0289848230643834 0.30024410619246916 1.0263852514753964 0.3002913031598738 Q 1.0237856798864096 0.3003385001272785 1.0220551004456921 0.2986696397977824 Q 1.0203245210049745 0.2970007794682863 1.0202755087695927 0.2943012243566461 L 1.0191627494996292 0.23301132497014757 Q 1.0191155525322244 0.23041175338116068 1.0207835052277319 0.22863118217911646 Q 1.0224514579232395 0.22685061097707224 1.0250510295122264 0.22680341400966758 Q 1.0276506011012132 0.22675621704226293 1.0293820881759193 0.22847506913308568 Q 1.0311135752506255 0.23019392122390842 1.03116077221803 0.2327934928128953 L 1.0312497203489082 0.23769268542290906 L 1.0295336630520073 0.2368236932746397 Q 1.029510064568305 0.2355239074801463 1.0308762514278755 0.23364879855938 Q 1.0322424382874458 0.23177368963861378 1.0346084603735497 0.22988042803807648 Q 1.0369744824596534 0.2279871664375392 1.0401021802075086 0.2267301832244204 Q 1.0432298779553635 0.22547320001130156 1.0467293012482306 0.225409665632103 M 1.0454292278859116 0.23643508214362713 Q 1.0410299528891647 0.23651495393461963 1.0377704325371007 0.2387744952762375 Q 1.0345109121850364 0.24103403661785539 1.032729289565091 0.2448170011749321 Q 1.0309476669451456 0.24859996573200882 1.0310347998080465 0.25339917481936924 Q 1.0311201174029703 0.2580984003840763 1.0330397003891756 0.26191418354865353 Q 1.0349592833753807 0.2657299667132308 1.0382986755184374 0.26786970036835994 Q 1.0416380676614938 0.2700094340234891 1.0460373426582408 0.2699295622324966 Q 1.050436617654988 0.26984969044150414 1.0536461462457252 0.2675910567338748 Q 1.0568556748364626 0.26533242302624543 1.058635482188431 0.2614494749465154 Q 1.0604152895403993 0.25756652686678533 1.0603299719454755 0.2528673013020783 Q 1.0602428390825747 0.24806809221471787 1.0583250713643466 0.24435229257279395 Q 1.0564073036461183 0.24063649293087003 1.0531179032643885 0.23849585164175233 Q 1.0498285028826586 0.23635521035263463 1.0454292278859116 0.23643508214362713 M 1.1319729693451837 0.22799206744961525 Q 1.1345684336697184 0.22814557621179704 1.1361650969220263 0.22994298169157332 Q 1.1377617601743342 0.23174038717134962 1.1376023472289916 0.23443567704682816 L 1.1351048777519572 0.27666188509599215 Q 1.1349513689897754 0.27925734942052705 1.1331510114184187 0.2809039254483067 Q 1.1313506538470621 0.28255050147608635 1.1287551895225272 0.28239699271390456 Q 1.1261597251979922 0.2822434839517228 1.1245660140372649 0.2803961656964747 Q 1.1229723028765375 0.27854884744122654 1.1231258116387193 0.27595338311669165 L 1.1234151166136002 0.2710619311204528 L 1.125558141085913 0.27209025310848406 Q 1.1254813867048221 0.27338798527075153 1.1239746016031356 0.27515209939895735 Q 1.122467816501449 0.27691621352716317 1.1199657279819062 0.2785713730482887 Q 1.1174636394623636 0.2802265325694143 1.1141455067671844 0.2812824660034828 Q 1.1108273740720054 0.2823383994375512 1.1070340031361467 0.2821140404774393 Q 1.1001460401210348 0.28170665183934157 1.0947654077704 0.27783221052383505 Q 1.0893847754197654 0.2739577692083286 1.086509456461649 0.26752678632162324 Q 1.083634137503533 0.2610958034349179 1.0841123763395608 0.25300993380848225 Q 1.0845965193587495 0.24482423863110292 1.0882098612119704 0.238777027649852 Q 1.0918232030651913 0.2327298166686011 1.097523206869302 0.22951073968394758 Q 1.1032232106734123 0.22629166269929407 1.109911522586637 0.22668724297107018 Q 1.1142040212772137 0.2269411228469862 1.1177209867300943 0.22845140560304378 Q 1.121237952182975 0.22996168835910138 1.1237652456197649 0.23211466023173657 Q 1.1262925390565548 0.2342676321043718 1.1276189737904405 0.23639966655454875 Q 1.1289454085243265 0.2385317010047257 1.1288627499600747 0.23992925871793683 L 1.1251922757450123 0.2410144402864141 L 1.1256232811157534 0.23372717506752766 Q 1.1257767898779352 0.23113171074299277 1.127577147449292 0.22948513471521312 Q 1.1293775050206487 0.22783855868743347 1.1319729693451837 0.22799206744961525 M 1.1091808465479935 0.2712217926210504 Q 1.1135731707895142 0.27148157668012723 1.116997306000193 0.2694802526036746 Q 1.120421441210872 0.2674789285272219 1.1224925728634412 0.2637947849798387 Q 1.1245637045160106 0.2601106414324555 1.12484120112457 0.25541884053810393 Q 1.1251246019162902 0.25062721409280875 1.1235021881839444 0.24672461576847454 Q 1.1218797744515987 0.24282201744414034 1.1187154232999967 0.2404310172790724 Q 1.1155510721483948 0.23804001711400444 1.111158747906874 0.2377802330549276 Q 1.106866249216297 0.23752635317901158 1.1034421140056183 0.23952767725546426 Q 1.1000179787949393 0.2415290013319169 1.0979468471423701 0.24521314487930013 Q 1.0958757154898007 0.24889728842668332 1.0955923146980806 0.25368891487197853 Q 1.0953148180895211 0.2583807157663301 1.0969372318218669 0.2622833140906643 Q 1.0985596455542126 0.2661859124149985 1.1017239967058146 0.26857691258006644 Q 1.1048883478574165 0.2709679127451344 1.1091808465479935 0.2712217926210504 M 1.1865262550520301 0.2342022909772562 Q 1.1938595008176667 0.23519400996002043 1.1972593207299815 0.2387820072515225 Q 1.2006591406422966 0.24237000454302457 1.201405877615126 0.2476678705184348 Q 1.2021526145879553 0.2529657364938451 1.201308313291818 0.25920890518621126 L 1.197877501675769 0.2845779716186833 Q 1.197529059871014 0.2871545174282313 1.1956098671654167 0.2886609036200103 Q 1.1936906744598195 0.2901672898117893 1.1911141286502716 0.2898188480070343 Q 1.1885375828407236 0.28947040620227926 1.1870874464107581 0.28750836534274377 Q 1.1856373099807926 0.2855463244832082 1.1859857517855477 0.28296977867366024 L 1.189416563401597 0.2576007122411882 Q 1.1898588164614783 0.25433048102137734 1.1893716267862802 0.25159047258701434 Q 1.188884437111082 0.24885046415265133 1.1869187086905446 0.24697006212736758 Q 1.1849529802700072 0.24508966010208386 1.1808899657241816 0.24454019417920098 Q 1.1769260490941078 0.24400412986419326 1.173986430684929 0.245221152299655 Q 1.1710468122757502 0.2464381747351167 1.1692547498886559 0.2488699461883503 Q 1.1674626875015615 0.2513017176415839 1.1670204344416801 0.2545719488613947 L 1.1635896228256308 0.2799410152938668 Q 1.1632411810208758 0.28251756110341475 1.1613219883152788 0.28402394729519376 Q 1.1594027956096815 0.28553033348697276 1.1568262498001336 0.28518189168221775 Q 1.1542497039905857 0.28483344987746273 1.1527995675606202 0.2828714090179272 Q 1.1513494311306547 0.2809093681583917 1.1516978729354097 0.2783328223488437 L 1.157232736987864 0.23740538314333212 Q 1.1575811787926191 0.23482883733378418 1.1595003714982162 0.23332245114200517 Q 1.1614195642038134 0.23181606495022616 1.1639961100133613 0.23216450675498118 Q 1.1665726558229095 0.23251294855973617 1.1680227922528748 0.2344749894192717 Q 1.1694729286828403 0.23643703027880725 1.1691244868780855 0.2390135760883552 L 1.1685482177394522 0.24327478646568448 L 1.1671019538268 0.24277646860030105 Q 1.1682216624024448 0.24121241850339645 1.1701676583237925 0.23950783648011376 Q 1.17211365424514 0.2378032544568311 1.1746207336413108 0.23642682687017916 Q 1.1771278130374814 0.23505039928352722 1.1801423694769744 0.23439851779651344 Q 1.1831569259164674 0.23374663630949966 1.1865262550520301 0.2342022909772562 M 1.2624202935857807 0.24915680144624652 Q 1.2649644450155066 0.24969279911659883 1.266267160979898 0.25175566874799093 Q 1.2675698769442896 0.253818538379383 1.2670338792739373 0.25636268980910903 L 1.2582723788931784 0.2979497804873226 Q 1.2563757717519317 0.3069521624694301 1.251876344930403 0.3115738675960806 Q 1.2473769181088743 0.3161955727227311 1.2412067363006987 0.3173483330855384 Q 1.235036554492523 0.3185010934483457 1.2279912120717433 0.31701679220737006 Q 1.2248599487736191 0.31635710276693646 1.221440354038297 0.31512569225611675 Q 1.2180207593029748 0.313894281745297 1.2159763167575834 0.3124416101793215 Q 1.213308756250768 0.310551075614052 1.212585456755769 0.30840588614910164 Q 1.2118621572607697 0.3062606966841513 1.2130006575975325 0.3042522602317857 Q 1.214479168955523 0.3016000905229825 1.216652669114493 0.30098495065355646 Q 1.218826169273463 0.3003698107841304 1.220813990430815 0.3016061630989596 Q 1.2222765456048095 0.30242526770950834 1.2246042364368932 0.30398871114955767 Q 1.226931927268977 0.305552154589607 1.230258894523234 0.30625307462006773 Q 1.2347600855142877 0.30720137819069104 1.2380022620329818 0.3066069949627745 Q 1.2412444385516759 0.306012611734858 1.2433692954146045 0.3034455154546097 Q 1.2454941522775334 0.3008784191743613 1.2465455323232244 0.2958879682929757 L 1.2479267570891321 0.2893318857625279 L 1.2494868815482012 0.2921132544314057 Q 1.2471430931856253 0.29499190969236605 1.2442046389021413 0.2965700371979478 Q 1.241266184618657 0.29814816470352956 1.2376145971411845 0.2985030011367855 Q 1.233963009663712 0.2988578375700415 1.2295596706507248 0.29793014929443173 Q 1.2243735158132063 0.29683753865871354 1.2210134374074162 0.2936258610430519 Q 1.2176533590016259 0.2904141834273902 1.2163973808172548 0.2857040858912044 Q 1.2151414026328837 0.2809939883550185 1.2162958591536426 0.27551427758330094 L 1.2223155252975992 0.24694149998791654 Q 1.2228515229679515 0.24439734855819054 1.2248757742578174 0.24303539895725915 Q 1.226900025547683 0.24167344935632776 1.229444176977409 0.24220944702668007 Q 1.231988328407135 0.24274544469703238 1.2332910443715264 0.24480831432842448 Q 1.2345937603359178 0.24687118395981655 1.2340577626655655 0.24941533538954258 L 1.2287802471420965 0.27446544177453713 Q 1.2274402529662158 0.2808258203488522 1.2296827290232488 0.28400643367549755 Q 1.2319252050802816 0.2871870470021429 1.2369156559616672 0.288238427047834 Q 1.2403404751939908 0.28895996237330823 1.242967229150267 0.2881337277497373 Q 1.245593983106543 0.28730749312616627 1.2474123641392652 0.2849824145425832 Q 1.2492307451719873 0.28265733595900017 1.2500141263825022 0.27893896079247754 L 1.255291641905971 0.253888854407483 Q 1.2558276395763233 0.25134470297775696 1.257851890866189 0.2499827533768256 Q 1.2598761421560547 0.2486208037758942 1.2624202935857807 0.24915680144624652 M 1.3768087284646453 0.26585544373411196 Q 1.3790822126123465 0.26662438445364167 1.3799905130583068 0.2686206285018153 Q 1.380898813504267 0.2706168725499889 1.3801298727847373 0.2728903566976902 L 1.3614510211394946 0.328117075785601 Q 1.3606180020266707 0.33058001694561073 1.358399567227648 0.33167707986198586 Q 1.3561811324286255 0.332774142778361 1.3537181912686158 0.33194112366553713 Q 1.3524867206886109 0.3315246141091252 1.3513520622404407 0.33066580667669576 Q 1.3502174037922705 0.32980699924426626 1.3498106178223674 0.328824896818503 L 1.3285698740306473 0.26896396796524763 L 1.3315454423370103 0.26828133097960394 L 1.3162947847330042 0.31337209990901316 Q 1.3155258440134745 0.31564558405671445 1.313544925021731 0.3166646326071524 Q 1.3115640060299874 0.3176836811575903 1.3091957933761318 0.31688270124141354 Q 1.3069223092284306 0.31611376052188384 1.3060140087824703 0.3141175164737102 Q 1.3051057083365103 0.3121212724255366 1.30587464905604 0.30984778827783527 L 1.3245535007012825 0.25462106918992444 Q 1.3253865198141064 0.2521581280299147 1.327604954613129 0.2510610651135396 Q 1.3298233894121516 0.24996400219716447 1.3322863305721615 0.2507970213099883 Q 1.3336125296583206 0.2512455700630473 1.334857241669075 0.2522471647966016 Q 1.3361019536798293 0.2532487595301559 1.3364126220597912 0.25451504747438186 L 1.3569331333340726 0.31276003538786745 L 1.354938278369686 0.3133521111187179 L 1.3698044656139272 0.26939808426315937 Q 1.370573406333457 0.2671246001154581 1.3725069610721232 0.2660895319666966 Q 1.3744405158107897 0.2650544638179351 1.3768087284646453 0.26585544373411196 M 1.4369334609447102 0.3075483250706026 Q 1.439317999878956 0.3085846522733076 1.4401995229341942 0.31082137243977537 Q 1.4410810459894323 0.3130580926062431 1.4400048600481616 0.3155343445764214 L 1.4231446136349226 0.3543289587758802 Q 1.4221082864322174 0.35671349771012595 1.4198516368964669 0.3576408772833303 Q 1.4175949873607163 0.35856825685653476 1.4152104484264707 0.35753192965382974 Q 1.412825909492225 0.3564956024511247 1.4119643158062696 0.35421302576669067 Q 1.4111027221203143 0.3519304490822567 1.4121390493230193 0.34954591014801095 L 1.4140921275127325 0.34505197138731714 L 1.415751085656158 0.34675428095915256 Q 1.4152329220548054 0.3479465504262754 1.413211552888287 0.3490852192511091 Q 1.4111901837217684 0.3502238880759428 1.4082716135652074 0.3509181129971544 Q 1.4053530434086463 0.35161233791836605 1.4018741355087694 0.35146334186414135 Q 1.3983952276088927 0.35131434580991666 1.3949101322434565 0.34979971374442476 Q 1.3885819327641122 0.34704946078339993 1.3848609879709688 0.3415615586481229 Q 1.3811400431778251 0.3360736565128459 1.3806505406703666 0.3290461827636817 Q 1.3801610381629081 0.3220187090145175 1.38338959598672 0.3145899531039828 Q 1.3866580125490973 0.3070694841575156 1.392129857377253 0.30263282841511396 Q 1.3976017022054086 0.29819617267271226 1.4040609044007755 0.2971325905182143 Q 1.4105201065961426 0.29606900836371636 1.416664880003622 0.29873954384761003 Q 1.4206085405487205 0.30045346960592983 1.4233920462409388 0.30308065366141346 Q 1.4261755519331574 0.3057078377168971 1.4278087726140578 0.3085983550075354 Q 1.4294419932949582 0.3114888722981738 1.4299547281753855 0.3139469412439914 Q 1.430467463055813 0.3164050101898091 1.4299094407158948 0.3176889926928645 L 1.4260896078209713 0.31744634757162654 L 1.4289992957362585 0.3107512959485521 Q 1.4300356229389635 0.3083667570143064 1.432292272474714 0.307439377441102 Q 1.4345489220104646 0.30651199786789757 1.4369334609447102 0.3075483250706026 M 1.400670289024658 0.3403091608703305 Q 1.404705662605689 0.3420629453672158 1.4086090850399053 0.3413605969493643 Q 1.4125125074741214 0.3406582485315128 1.4157238307043651 0.3379105398295399 Q 1.4189351539346087 0.33516283112756706 1.420808514647191 0.3308523184387383 Q 1.4227217340983385 0.326450092713977 1.4225396749990786 0.3222276106850778 Q 1.422357615899819 0.31800512865617864 1.4202079779624883 0.31467210349299896 Q 1.4180583400251576 0.31133907832981933 1.4140229664441264 0.3095852938329339 Q 1.4100793058990277 0.3078713680746141 1.4061758834648117 0.3085737164924657 Q 1.4022724610305954 0.3092760649103172 1.399061137800352 0.31202377361229006 Q 1.3958498145701081 0.3147714823142629 1.3939365951189604 0.3191737080390242 Q 1.3920632344063784 0.32348422072785293 1.3922452935056382 0.3277067027567522 Q 1.392427352604898 0.33192918478565137 1.3945769905422287 0.335262209948831 Q 1.3967266284795594 0.3385952351120106 1.400670289024658 0.3403091608703305 M 1.486551649117322 0.3323493220312927 Q 1.4935536863153889 0.3362186210733529 1.4950175538204793 0.34142626851990115 Q 1.4964814213255697 0.34663391596644944 1.4945813863857087 0.3525533641862844 L 1.4935287496233514 0.3509434089550641 L 1.49500281315157 0.3499299314196568 Q 1.4971655422058723 0.34849724058152154 1.5006353841379507 0.3473869717103057 Q 1.504105226070029 0.34627670283908984 1.5081071554801475 0.3463744831869511 Q 1.5121090848902663 0.3464722635348123 1.515960205349203 0.3486003780079454 Q 1.5222620388274632 0.35208274714579957 1.5240448903852588 0.35660977048601616 Q 1.5258277419430541 0.3611367938262328 1.5245622371943897 0.3663214826048489 Q 1.5232967324457252 0.371506171383465 1.5202496594501027 0.37702027567694263 L 1.5078679025155102 0.39942679471075665 Q 1.5066103803268407 0.4017024568001284 1.5042760382568008 0.4024119263907677 Q 1.5019416961867609 0.40312139598140706 1.4996660340973893 0.4018638737927375 Q 1.4973903720080175 0.400606351604068 1.4967488482688789 0.39825242992055304 Q 1.4961073245297403 0.39589850823703815 1.49736484671841 0.3936228461476664 L 1.5097466036530025 0.3712163271138524 Q 1.5113426895078523 0.3683279867696498 1.511924191095728 0.3656216320435841 Q 1.5125056926836038 0.3629152773175185 1.5114415177275233 0.3604991788793643 Q 1.5103773427714426 0.3580830804412101 1.5069638496373852 0.3561967971582058 Q 1.5036378819683034 0.3543588801132272 1.5005008346055437 0.35445339912614526 Q 1.497363787242784 0.35454791813906333 1.494900488157928 0.3562143987475753 Q 1.4924371890730717 0.35788087935608737 1.4908411032182218 0.3607692197002899 L 1.4784593462836293 0.38317573873410393 Q 1.4772018240949598 0.3854514008234757 1.47486748202492 0.386160870414115 Q 1.47253313995488 0.38687034000475434 1.4702574778655084 0.3856128178160848 Q 1.4679818157761366 0.38435529562741527 1.467340292036998 0.3820013739439003 Q 1.4666987682978594 0.37964745226038543 1.467956290486529 0.3773717901710137 L 1.4803380474211216 0.35496527113719967 Q 1.4819341332759715 0.35207693079299707 1.482515634863847 0.34937057606693145 Q 1.483097136451723 0.3466642213408658 1.4820329614956425 0.34424812290271156 Q 1.4809687865395618 0.3418320244645574 1.4775552934055043 0.3399457411815531 Q 1.4742293257364225 0.3381078241365745 1.4710922783736629 0.33820234314949255 Q 1.4679552310109032 0.3382968621624106 1.465491931926047 0.33996334277092266 Q 1.4630286328411908 0.34162982337943465 1.461432546986341 0.3445181637236372 L 1.4490507900517484 0.3669246827574512 Q 1.447793267863079 0.36920034484682296 1.445458925793039 0.3699098144374623 Q 1.4431245837229991 0.3706192840281016 1.4408489216336275 0.3693617618394321 Q 1.4385732595442557 0.36810423965076255 1.4379317358051171 0.3657503179672476 Q 1.4372902120659785 0.3633963962837327 1.4385477342546482 0.36112073419436097 L 1.4585229905592838 0.32497271715934073 Q 1.4597805127479533 0.322697055069969 1.4621148548179932 0.32198758547932965 Q 1.464449196888033 0.32127811588869026 1.466724858977405 0.32253563807735985 Q 1.4690005210667765 0.3237931602660294 1.469642044805915 0.32614708194954434 Q 1.4702835685450537 0.32850100363305923 1.469026046356384 0.330776665722431 L 1.4669462981212769 0.3345402607163919 L 1.4657785148607165 0.3335521907510781 Q 1.4673884700919368 0.33249955398872066 1.4697320191730523 0.3315666672301039 Q 1.472075568254168 0.33063378047148717 1.4749108799950499 0.33025827104149025 Q 1.4777461917359318 0.3298827616114933 1.4807047502545256 0.3303179988939681 Q 1.4836633087731195 0.3307532361764429 1.486551649117322 0.3323493220312927 M 1.5382023637103521 0.42865499010675434 Q 1.531173405009942 0.42387547762241795 1.5280012023560396 0.41742550627964636 Q 1.5248289997021374 0.4109755349368747 1.5254887661148524 0.40404753318451836 Q 1.5261485325275674 0.39711953143216194 1.5304782085427897 0.390752121785908 Q 1.5355388688203224 0.3833096949266501 1.5421277633535029 0.3801110281996175 Q 1.5487166578866831 0.37691236147258494 1.5555073871548202 0.3774183219521367 Q 1.562298116422957 0.37792428243168846 1.5677558961197462 0.3816354333018791 Q 1.5719732713399923 0.38450314079248094 1.5745550108540818 0.38879815197772705 Q 1.5771367503681712 0.3930931631629732 1.577978648589772 0.3980795152749349 Q 1.578820546811373 0.40306586738689665 1.5778167474479643 0.40818786766393883 Q 1.5768129480845556 0.41330986794098107 1.573776551918036 0.4177753240565358 Q 1.5723443488789244 0.4197037416603653 1.570012420127484 0.41993201408140174 Q 1.5676804913760438 0.4201602865024382 1.565695844213575 0.4188107770950961 L 1.5341068768776138 0.39733108569490194 L 1.537249023788453 0.3873748357587712 L 1.5675975866478713 0.4080110837793766 L 1.5646537355761565 0.4084279061247037 L 1.5661719336594162 0.40619517806692634 Q 1.5676372035964155 0.4036846036283314 1.567400651257382 0.400742403262806 Q 1.5671640989183484 0.39780020289728063 1.5656491230863163 0.39513752600581253 Q 1.564134147254284 0.39247484911434444 1.5615706446694284 0.3907317327965276 Q 1.5590898357163425 0.38904484603735007 1.5564899648212207 0.3882444265668858 Q 1.553890093926099 0.38744400709642146 1.551250553308332 0.3879468244858968 Q 1.548611012690565 0.3884496418753721 1.5459020368646441 0.39047731294696536 Q 1.5431930610387232 0.39250498401855866 1.5404378126654 0.3965569719752657 Q 1.5374014164988803 0.40102242809082045 1.5371534147647228 0.40538860435156104 Q 1.5369054130305653 0.40975478061230164 1.5387445605649184 0.413363455763501 Q 1.5405837080992713 0.41697213091470026 1.5438914533700525 0.41922131326027035 Q 1.5469511177455253 0.42130180692992264 1.5491077549962906 0.422042695429369 Q 1.5512643922470557 0.4227835839288154 1.552858707524378 0.42283978710040426 Q 1.5544530228017004 0.4228959902719931 1.5557000301030006 0.4230183536264077 Q 1.5576945815026055 0.42328624299598844 1.559017679610918 0.42418591593421645 Q 1.5608369395098478 0.42542296622428 1.5611925537909173 0.4274786993010921 Q 1.5615481680719867 0.4295344323779043 1.5604235768992016 0.4311883050132949 Q 1.5589053788159417 0.43342103307107227 1.5553529068363314 0.4336658653281029 Q 1.55196582212026 0.4340231567024121 1.5471514337095444 0.4327448123705645 Q 1.5423370452988288 0.43146646803871697 1.5382023637103521 0.42865499010675434" fill="#000000" fill-rule="nonzero"></path></g><g clip-path="url(&quot;#SvgjsClipPath1001&quot;)"><g clip-path="url(&quot;#SvgjsClipPath1000&quot;)"><path d=" M 0.04759272745190178 0.419652090031961 L 0.4202952349975266 0.6347840810138599 L 0.77402496605895 0.43090712692936933 C 0.9503459517474105 0.3257875982255278 1.1701029997244239 0.3257875982255278 1.3464239854128874 0.43090712692936933 L 1.700153716474308 0.6347840810138599 L 2.0728562240199357 0.419652090031961 L 1.605611406536073 0.14985277697693286 C 1.2697512012055618 -0.050136556485807976 0.8513408952318381 -0.050136556485807976 0.5154806899013271 0.14985277697693286 Z" fill="#51a8db" transform="matrix(1,0,0,1,0,0)" fill-rule="evenodd"></path></g><g clip-path="url(&quot;#SvgjsClipPath1000&quot;)"><path d=" M 2.12012737898905 0.5026177905900033 L 1.7477464439262096 0.7177497815719022 L 1.7477464439262096 1.1258252622236706 C 1.7506078864637804 1.3311194998776048 1.6407409621832159 1.521473204642356 1.4615469342492393 1.6216900306752307 L 1.107817203187816 1.8255669847597211 L 1.107817203187816 2.2561525392063064 L 1.5747404481888945 1.9866747986340625 C 1.9165558948901034 1.796270632757107 2.126447925665799 1.4337747490174326 2.121413668920184 1.042537989182847 Z" fill="#000000" transform="matrix(1,0,0,1,0,0)" fill-rule="evenodd"></path></g><g clip-path="url(&quot;#SvgjsClipPath1000&quot;)"><path d=" M 1.0119886033184498 2.2487563721022976 L 1.0119886033184498 1.8258885572425025 L 0.6582588722570265 1.6216900306752247 C 0.47906484432305 1.52147320464235 0.3691979200424855 1.3311194998775988 0.3720593625800592 1.1258252622236675 L 0.3720593625800592 0.7177497815719022 L 0 0.5026177905900033 L 0 1.0341771046304853 C -0.005034256745620775 1.4254138644650678 0.20485777403007188 1.7879097482047424 0.5466732207312808 1.9783139140816977 Z" fill="#3361e1" transform="matrix(1,0,0,1,0,0)" fill-rule="evenodd"></path></g></g></g><defs><clipPath id="SvgjsClipPath1001"><path d=" M 0 0 h 2.12012737898905 v 2.2558309667235226 h -2.12012737898905 Z"></path></clipPath><clipPath id="SvgjsClipPath1000"><path d=" M 0 0 L 2.12012737898905 0 L 2.12012737898905 2.2558309667235226 L 0 2.2558309667235226 Z"></path></clipPath></defs></svg>